<?xml version="1.0" standalone="no"?>
<!DOCTYPE svg PUBLIC "-//W3C//DTD SVG 20010904//EN"
 "http://www.w3.org/TR/2001/REC-SVG-20010904/DTD/svg10.dtd">
<svg version="1.0" xmlns="http://www.w3.org/2000/svg"
 width="2048.000000pt" height="2048.000000pt" viewBox="0 0 2048.000000 2048.000000"
 preserveAspectRatio="xMidYMid meet">

<g transform="translate(0.000000,2048.000000) scale(0.100000,-0.100000)"
fill="#000000" stroke="none">
<path d="M1710 16390 l0 -2390 2390 0 2390 0 -2 2388 -3 2387 -2387 3 -2388 2
0 -2390z m4090 -5 l0 -1705 -1705 0 -1705 0 0 1705 0 1705 1705 0 1705 0 0
-1705z"/>
<path d="M3070 16385 l0 -1025 1025 0 1025 0 0 1025 0 1025 -1025 0 -1025 0 0
-1025z"/>
<path d="M7170 17410 l0 -1370 680 0 680 0 0 -340 0 -340 -680 0 -680 0 0
-680 0 -680 340 0 340 0 0 340 0 340 340 0 340 0 0 -1025 0 -1025 -340 0 -340
0 0 -340 0 -340 -340 0 -340 0 0 340 0 340 -340 0 -340 0 0 340 0 340 -1025 0
-1025 0 0 -340 0 -340 -340 0 -340 0 0 340 0 340 -1025 0 -1025 0 0 -1025 0
-1025 340 0 340 0 0 685 0 685 680 0 c537 0 680 -3 680 -12 0 -7 1 -313 3
-680 l2 -668 -340 -2 -340 -3 -3 -342 -2 -343 -340 0 -340 0 0 -340 0 -340
-340 0 -340 0 0 -340 0 -340 340 0 340 0 0 340 0 340 340 0 340 0 0 -340 0
-340 683 -2 682 -3 0 -340 0 -340 -682 -3 -683 -2 0 -340 0 -340 -340 0 -340
0 0 340 0 340 -340 0 -340 0 0 -340 0 -340 340 0 340 0 0 -340 0 -340 685 0
685 0 0 340 0 340 340 0 340 0 0 340 0 340 1023 2 1022 3 3 343 2 342 340 0
340 0 0 340 0 340 340 0 340 0 2 -682 3 -683 683 -3 682 -2 -2 -338 -3 -337
-1022 -3 -1023 -2 0 -683 0 -682 340 3 340 3 0 339 0 340 683 -2 682 -3 0
-680 0 -680 -342 -3 -343 -2 0 -340 0 -340 -337 2 -338 3 -3 337 -2 338 -340
0 -340 0 0 -680 0 -680 1365 0 1365 0 0 -340 0 -340 -340 0 -340 0 -2 -683 -3
-682 -340 0 -340 0 -3 682 -2 683 -340 0 -340 0 0 -345 0 -345 -340 0 -340 0
0 -680 0 -680 1025 0 1025 0 0 340 0 340 340 0 340 0 0 -340 0 -340 340 0 340
0 2 338 3 337 340 5 340 5 3 337 2 338 340 0 340 0 -2 343 -3 342 -683 3 -682
2 2 338 3 337 2045 0 2045 0 3 -337 2 -338 -340 0 -340 0 -2 -342 -3 -343
-340 0 -340 0 -3 343 -2 342 -340 0 -340 0 0 -345 0 -345 340 0 340 0 0 -680
0 -680 345 0 345 0 0 340 0 340 340 0 340 0 0 -340 0 -340 680 2 680 3 2 335
3 335 1023 3 1022 2 0 -340 0 -340 345 0 345 0 0 680 0 680 -342 2 -343 3 -3
337 -2 338 342 2 343 3 3 682 2 683 -345 0 -345 0 0 340 0 340 -340 0 -340 0
0 -680 0 -680 -340 0 -340 0 2 1023 3 1022 1023 3 1022 2 -2 338 -3 337 -682
3 -683 2 0 680 0 680 340 0 340 0 0 -340 0 -340 343 2 342 3 3 337 c1 186 -1
338 -5 338 -5 0 -159 2 -343 3 l-335 2 -3 343 -2 342 -340 0 -340 0 -2 -342
-3 -343 -337 -3 -338 -2 0 1025 0 1025 340 0 340 0 0 -340 0 -340 685 0 685 0
0 340 0 340 -685 0 -685 0 0 340 0 340 340 0 340 0 0 345 0 345 -340 0 -340 0
0 340 0 340 683 2 682 3 3 338 2 337 -685 0 -685 0 0 -340 0 -340 -340 0 -340
0 0 340 0 340 -345 0 -345 0 0 -340 0 -340 -340 0 -340 0 0 340 0 340 -340 0
-340 0 0 -680 0 -680 -340 0 -340 0 0 340 0 340 -345 0 -345 0 0 340 0 340
-340 0 -340 0 0 -340 0 -340 -340 0 -340 0 0 1025 0 1025 340 0 340 0 0 -340
0 -340 340 0 340 0 0 340 0 340 -340 0 -340 0 2 1023 3 1022 338 3 337 2 0
340 0 340 -340 0 -340 0 0 340 0 340 340 0 340 0 0 345 0 345 -337 -2 -338 -3
-3 -342 -2 -343 -340 0 -340 0 0 -340 0 -340 -330 0 -330 0 0 340 0 340 -352
2 -353 3 -3 343 -2 342 -340 0 -340 0 0 -345 0 -345 -340 0 -340 0 0 -340 0
-340 340 0 340 0 0 -340 0 -340 -685 0 -685 0 1 338 0 337 -341 3 -340 2 -2
683 -3 682 -337 3 -338 2 0 -1370z m3410 340 l0 -340 -340 0 -340 0 0 340 0
340 340 0 340 0 0 -340z m2050 -680 l0 -340 -340 0 -340 0 0 340 0 340 340 0
340 0 0 -340z m-682 -1367 l2 -1023 -340 0 -340 0 0 340 0 340 -345 0 -345 0
0 -340 0 -340 340 0 340 0 0 -340 0 -340 -340 0 -340 0 0 -345 0 -345 340 0
340 0 0 -340 0 -340 -340 0 -340 0 0 -340 0 -340 -340 0 -340 0 0 -685 0 -685
340 0 340 0 0 -340 0 -340 340 0 340 0 0 -340 0 -340 -340 0 -340 0 0 -685 0
-685 -340 0 -340 0 0 -340 0 -340 340 0 340 0 0 -340 0 -340 1008 -1 c554 -1
1014 -2 1022 -3 13 -1 15 -85 18 -683 l2 -683 -340 0 -340 0 0 340 0 340 -345
0 -345 0 0 -340 0 -340 -340 0 -340 0 0 -340 0 -340 -340 0 -340 0 0 340 0
340 -340 0 -340 0 0 340 0 340 340 0 340 0 0 -340 0 -340 340 0 340 0 0 340 0
340 -337 2 -338 3 -3 682 -2 683 -340 0 -340 0 0 340 0 340 340 0 340 0 2 683
3 682 338 3 337 2 0 340 0 340 -340 0 -340 0 0 -340 0 -340 -340 0 -340 0 0
340 0 340 340 0 340 0 0 340 0 340 -340 0 -340 0 -2 -337 -3 -338 -682 -3
-683 -2 0 340 0 340 -340 0 -340 0 0 -340 0 -340 -340 0 -340 0 0 340 0 340
-345 0 -345 0 0 -340 0 -340 343 -2 342 -3 0 -335 0 -335 -1022 -3 -1023 -2 0
340 0 340 -685 0 -685 0 0 340 0 340 685 0 685 0 0 340 0 340 340 0 340 0 0
345 0 345 -340 0 -340 0 0 340 0 340 1023 -2 1022 -3 0 -335 0 -335 -340 -5
-340 -5 0 -340 0 -340 340 0 340 0 3 343 2 342 338 -2 337 -3 3 -342 2 -343
340 0 340 0 0 -340 0 -340 340 0 340 0 0 340 0 340 343 2 342 3 3 343 2 342
-345 0 -346 0 3 338 3 337 343 3 342 2 0 340 0 340 340 0 340 0 0 -340 0 -340
340 0 340 0 0 340 0 340 -337 2 -338 3 0 340 0 340 335 2 335 2 3 341 2 340
-340 0 -340 0 0 -340 0 -340 -340 0 -340 0 0 1020 0 1020 340 0 340 0 0 -340
0 -340 340 0 340 0 0 678 c0 373 3 682 7 685 3 4 311 6 682 5 l676 -3 3 -1022z
m1362 -3413 l0 -340 -340 0 -340 0 0 340 0 340 340 0 340 0 0 -340z m3418 -2
l2 -338 338 -2 337 -3 3 -337 2 -338 -340 0 -340 0 -2 -342 -3 -343 -336 -3
-337 -2 -6 22 c-8 31 -7 2014 1 2022 4 3 158 5 342 4 l336 -3 3 -337z m-4100
-680 l2 -338 -340 0 -340 0 -2 -342 -3 -343 -680 0 -680 0 -3 670 c-1 369 0
676 3 683 3 10 213 12 1022 10 l1018 -3 3 -337z m2732 -343 l0 -685 340 0 340
0 0 -680 0 -680 -340 0 -340 0 2 -342 3 -343 338 -3 337 -2 0 -340 0 -340
-680 0 -680 0 0 340 0 340 -340 0 -340 0 -2 -337 -3 -338 -682 -3 -683 -2 0
-340 0 -340 -680 0 -680 0 0 1025 0 1025 338 -2 337 -3 3 -342 2 -343 340 0
340 0 0 685 0 685 -340 0 -340 0 0 340 0 340 340 0 340 0 0 340 0 340 685 0
685 0 0 -340 0 -340 340 0 340 0 0 685 0 685 340 0 340 0 0 -685z m0 -5120 l0
-1025 -1022 2 -1023 3 -3 1010 c-1 556 0 1016 3 1023 3 9 218 12 1025 12
l1020 0 0 -1025z m1368 -2047 l2 -338 -342 -2 -343 -3 -3 -342 -2 -343 -340 0
-340 0 0 -340 0 -340 -340 0 -340 0 0 680 0 680 340 0 340 0 0 338 c0 186 3
342 7 345 3 4 311 6 682 5 l676 -3 3 -337z m1362 2 l0 -340 -340 0 -340 0 0
340 0 340 340 0 340 0 0 -340z m-682 -687 l-3 -338 -337 -3 -338 -2 0 340 0
340 340 0 340 0 -2 -337z m-6828 -683 l0 -340 -340 0 -340 0 0 340 0 340 340
0 340 0 0 -340z"/>
<path d="M4440 10240 l0 -340 340 0 340 0 0 340 0 340 -340 0 -340 0 0 -340z"/>
<path d="M12630 10240 l0 -340 340 0 340 0 0 -340 0 -340 345 0 345 0 0 340 0
340 -342 2 -343 3 -3 338 -2 337 -340 0 -340 0 0 -340z"/>
<path d="M14680 9560 l0 -340 340 0 340 0 0 340 0 340 -340 0 -340 0 0 -340z"/>
<path d="M14000 6145 l0 -345 340 0 340 0 -2 343 -3 342 -337 3 -338 2 0 -345z"/>
<path d="M14000 16390 l0 -2390 2390 0 2390 0 -2 2388 -3 2387 -2387 3 -2388
2 0 -2390z m4090 -5 l0 -1705 -1705 0 -1705 0 0 1705 0 1705 1705 0 1705 0 0
-1705z"/>
<path d="M15360 16385 l0 -1025 1025 0 1025 0 0 1025 0 1025 -1025 0 -1025 0
0 -1025z"/>
<path d="M5120 7510 l0 -340 685 0 685 0 0 340 0 340 -685 0 -685 0 0 -340z"/>
<path d="M1710 4100 l0 -2390 2390 0 2390 0 -2 2388 -3 2387 -2387 3 -2388 2
0 -2390z m4090 -5 l0 -1705 -1705 0 -1705 0 0 1705 0 1705 1705 0 1705 0 0
-1705z"/>
<path d="M3072 4098 l3 -1023 1023 -3 1022 -2 0 1025 0 1025 -1025 0 -1025 0
2 -1022z"/>
<path d="M11950 2050 l0 -340 340 0 340 0 0 340 0 340 -340 0 -340 0 0 -340z"/>
</g>
</svg>
