<svg width="27" height="27" viewBox="0 0 27 27" fill="none" xmlns="http://www.w3.org/2000/svg">
<g clip-path="url(#clip0_1_377)">
<path d="M1.43185 14.9474L12.0946 25.1024C12.8854 25.8555 14.1675 25.8555 14.9583 25.1024C15.7492 24.3492 15.7492 23.1281 14.9583 22.3749L4.29563 12.22C3.50482 11.4668 2.22266 11.4668 1.43185 12.22C0.641034 12.9731 0.641035 14.1942 1.43185 14.9474Z" fill="black"/>
<path d="M1.38432 14.8184C0.624135 14.0944 0.636035 12.9172 1.41071 12.2072L12.1045 2.40749C12.8943 1.68376 14.1471 1.6952 14.9221 2.43333C15.7253 3.19833 15.7047 4.4447 14.8765 5.18515L4.05658 14.8586C3.30054 15.5345 2.11757 15.5167 1.38432 14.8184Z" fill="black"/>
<path d="M3.37488 15.4286L24.9749 15.4286C26.0933 15.4286 26.9999 14.5651 26.9999 13.5C26.9999 12.4349 26.0933 11.5714 24.9749 11.5714L3.37488 11.5714C2.2565 11.5714 1.34988 12.4349 1.34988 13.5C1.34988 14.5651 2.2565 15.4286 3.37488 15.4286Z" fill="black"/>
</g>
<defs>
<clipPath id="clip0_1_377">
<rect y="27" width="27" height="27" transform="rotate(-90 0 27)" fill="white"/>
</clipPath>
</defs>
</svg>
