<?xml version="1.0" standalone="no"?>
<!DOCTYPE svg PUBLIC "-//W3C//DTD SVG 20010904//EN"
 "http://www.w3.org/TR/2001/REC-SVG-20010904/DTD/svg10.dtd">
<svg version="1.0" xmlns="http://www.w3.org/2000/svg"
 width="512.000000pt" height="512.000000pt" viewBox="0 0 512.000000 512.000000"
 preserveAspectRatio="xMidYMid meet">

<g transform="translate(0.000000,512.000000) scale(0.100000,-0.100000)"
fill="#000000" stroke="none">
<path d="M1006 5100 c-60 -24 -109 -69 -139 -130 -21 -43 -22 -55 -22 -325 0
-312 1 -317 70 -393 41 -46 122 -82 184 -82 96 0 192 63 232 152 23 52 24 60
24 323 0 263 -1 271 -24 323 -56 125 -197 182 -325 132z m132 -141 c64 -22 67
-36 67 -314 0 -284 -3 -294 -76 -317 -33 -9 -45 -9 -75 5 -58 28 -64 55 -64
310 0 247 5 278 54 308 36 22 51 23 94 8z"/>
<path d="M1977 5106 c-83 -31 -144 -93 -166 -171 -9 -28 -11 -123 -9 -310 3
-298 5 -308 70 -374 54 -55 104 -75 183 -75 79 0 129 20 183 75 66 68 67 73
67 394 0 321 -1 326 -67 394 -67 68 -180 97 -261 67z m156 -176 l27 -30 0
-255 0 -255 -29 -32 c-25 -28 -36 -33 -76 -33 -40 0 -51 5 -76 33 l-29 32 0
254 c0 244 1 254 21 280 44 55 115 58 162 6z"/>
<path d="M2924 5104 c-60 -21 -118 -75 -145 -136 -23 -52 -24 -60 -24 -323 0
-263 1 -271 24 -323 40 -89 136 -152 232 -152 95 0 196 68 237 159 25 54 25
578 0 632 -56 125 -199 187 -324 143z m137 -150 c53 -27 59 -58 59 -309 0
-257 -5 -284 -64 -312 -30 -14 -42 -14 -75 -5 -73 22 -76 34 -76 313 0 271 4
291 60 315 40 17 60 17 96 -2z"/>
<path d="M420 2360 l0 -2360 1635 0 1635 0 0 2360 0 2360 -150 0 -150 0 0 -75
0 -75 75 0 75 0 0 -1813 0 -1812 -398 -398 -397 -397 -1088 0 -1087 0 0 1875
0 1875 743 2 742 3 0 75 0 75 -742 3 -743 2 0 255 0 255 75 0 75 0 0 75 0 75
-150 0 -150 0 0 -2360z m3120 -1920 l0 -290 -292 0 -293 0 290 290 c159 160
291 290 292 290 2 0 3 -130 3 -290z"/>
<path d="M1480 4645 l0 -75 95 0 95 0 0 75 0 75 -95 0 -95 0 0 -75z"/>
<path d="M2440 4645 l0 -75 95 0 95 0 0 75 0 75 -95 0 -95 0 0 -75z"/>
<path d="M4002 4647 l-72 -72 0 -2004 0 -2004 163 -283 162 -284 64 3 65 2
160 275 161 275 3 2008 2 2009 -72 74 -71 74 -246 0 -247 0 -72 -73z m525 -99
c16 -15 23 -33 23 -60 l0 -38 -235 0 -235 0 0 32 c0 21 9 41 27 60 l27 28 185
0 c176 0 186 -1 208 -22z m23 -308 l0 -60 -235 0 -235 0 0 60 0 60 235 0 235
0 0 -60z m0 -1820 l0 -1610 -235 0 -235 0 0 1610 0 1610 235 0 235 0 0 -1610z
m0 -1794 c0 -21 -14 -59 -37 -100 l-38 -66 -155 0 -155 0 -42 74 c-24 40 -43
85 -43 99 l0 27 235 0 235 0 0 -34z m-170 -322 c0 -10 -55 -104 -60 -104 -3 0
-19 25 -37 55 l-32 55 64 0 c36 0 65 -3 65 -6z"/>
<path d="M4247 3893 c-4 -3 -7 -37 -7 -75 l0 -68 75 0 75 0 0 75 0 75 -68 0
c-38 0 -72 -3 -75 -7z"/>
<path d="M4247 3643 c-4 -3 -7 -37 -7 -75 l0 -68 75 0 75 0 0 75 0 75 -68 0
c-38 0 -72 -3 -75 -7z"/>
<path d="M4245 3388 c-3 -7 -4 -557 -3 -1223 l3 -1210 73 -3 72 -3 0 1226 0
1225 -70 0 c-47 0 -72 -4 -75 -12z"/>
<path d="M920 3560 l0 -80 295 0 295 0 0 80 0 80 -295 0 -295 0 0 -80z"/>
<path d="M1714 3626 c-3 -7 -4 -42 -2 -77 l3 -64 738 -3 737 -2 0 80 0 80
-735 0 c-610 0 -737 -2 -741 -14z"/>
<path d="M920 2995 l0 -75 295 0 295 0 0 75 0 75 -295 0 -295 0 0 -75z"/>
<path d="M1712 2998 l3 -73 738 -3 737 -2 0 75 0 75 -740 0 -741 0 3 -72z"/>
<path d="M920 2435 l0 -75 295 0 295 0 0 75 0 75 -295 0 -295 0 0 -75z"/>
<path d="M1710 2435 l0 -75 740 0 740 0 0 75 0 75 -740 0 -740 0 0 -75z"/>
<path d="M920 1875 l0 -75 295 0 295 0 0 75 0 75 -295 0 -295 0 0 -75z"/>
<path d="M1710 1875 l0 -75 740 0 740 0 0 75 0 75 -740 0 -740 0 0 -75z"/>
<path d="M920 1315 l0 -75 295 0 295 0 0 75 0 75 -295 0 -295 0 0 -75z"/>
<path d="M1710 1315 l0 -75 740 0 740 0 0 75 0 75 -740 0 -740 0 0 -75z"/>
<path d="M2705 978 c-3 -7 -4 -157 -3 -333 l3 -320 72 -3 73 -3 2 258 3 258
258 3 258 2 -3 73 -3 72 -328 3 c-258 2 -329 0 -332 -10z"/>
</g>
</svg>
