<svg width="39" height="39" viewBox="0 0 39 39" fill="none" xmlns="http://www.w3.org/2000/svg">
<g clip-path="url(#clip0_93_1316)">
<path d="M2.84116 6.7793C1.55386 6.96973 0.380811 8.0666 0.114209 9.34629C-0.0533691 10.1156 -0.0533691 28.8844 0.114209 29.6537C0.388428 30.9715 1.54624 32.0303 2.90972 32.2207C3.54956 32.3197 35.4503 32.3197 36.0902 32.2207C37.4537 32.0303 38.6115 30.9715 38.8857 29.6537C39.0533 28.8844 39.0533 10.1156 38.8857 9.34629C38.6115 8.02852 37.4537 6.96973 36.0902 6.7793C35.5113 6.69551 3.41245 6.69551 2.84116 6.7793ZM36.6539 7.98281C37.2023 8.24941 37.5222 8.57695 37.8041 9.14063C37.9564 9.44531 37.9716 9.62051 37.9945 10.8316L38.0249 12.1875H19.5H0.974951L1.00542 10.8316C1.02827 9.62051 1.04351 9.44531 1.19585 9.14063C1.55386 8.40938 2.17847 7.92188 2.90972 7.77715C3.09253 7.73906 10.6412 7.71621 19.6904 7.72383L36.1435 7.73145L36.6539 7.98281ZM37.9945 22.067L37.9716 29.5166L37.8041 29.8594C37.5222 30.423 37.2023 30.7506 36.6539 31.0172L36.1435 31.2686H19.5H2.8564L2.34604 31.0172C1.79761 30.7506 1.47769 30.423 1.19585 29.8594L1.02827 29.5166L1.00542 22.067L0.990186 14.625H19.5H38.0097L37.9945 22.067Z" fill="black"/>
<path d="M5.55294 20.2084C4.85977 20.4064 4.33419 20.9625 4.18946 21.6861C4.05235 22.3488 4.12091 24.7102 4.28848 25.0986C4.45606 25.4795 4.82169 25.8604 5.21778 26.0736C5.51485 26.2412 5.58341 26.2412 8.9502 26.2412C12.3246 26.2412 12.3856 26.2412 12.6902 26.0736C13.1397 25.8375 13.5281 25.3652 13.6652 24.9006C13.8328 24.3369 13.8328 22.0518 13.6652 21.4881C13.5205 21.0006 13.1092 20.5207 12.6445 20.3074C12.317 20.1551 12.1723 20.1475 9.10255 20.1322C6.72598 20.117 5.81192 20.1398 5.55294 20.2084ZM12.2561 21.2367C12.7283 21.4957 12.7969 21.7318 12.7969 23.1791C12.7969 24.6188 12.7283 24.8854 12.3094 25.1443C12.0885 25.2814 11.8752 25.2891 8.95782 25.2891C5.97188 25.2891 5.83477 25.2814 5.59864 25.1367C5.16446 24.8701 5.10352 24.6264 5.10352 23.1791C5.10352 21.7318 5.17208 21.4957 5.64434 21.2367C5.88048 21.1072 6.13946 21.0996 8.9502 21.0996C11.7609 21.0996 12.0199 21.1072 12.2561 21.2367Z" fill="black"/>
<path d="M18.2051 20.1627C17.8928 20.277 17.7938 20.7568 18.0375 20.9701C18.167 21.092 18.8602 21.0996 26.4469 21.0996C34.3535 21.0996 34.7191 21.092 34.8334 20.9625C34.9705 20.8178 35.001 20.5131 34.902 20.3684C34.7344 20.117 34.5744 20.1094 26.4164 20.117C21.9604 20.117 18.266 20.1398 18.2051 20.1627Z" fill="black"/>
<path d="M18.0679 24.116C17.9537 24.1922 17.9003 24.3064 17.9003 24.4893C17.9003 24.9996 17.7785 24.9844 22.2574 24.9844C26.1802 24.9844 26.2869 24.9768 26.4316 24.832C26.5154 24.7482 26.5839 24.5959 26.5839 24.4893C26.5839 24.3826 26.5154 24.2303 26.4316 24.1465C26.2869 24.0018 26.1802 23.9941 22.2574 23.9941C18.7459 23.9941 18.2203 24.0094 18.0679 24.116Z" fill="black"/>
</g>
<defs>
<clipPath id="clip0_93_1316">
<rect width="39" height="39" fill="white"/>
</clipPath>
</defs>
</svg>
