<svg width="57" height="45" viewBox="0 0 57 45" fill="none" xmlns="http://www.w3.org/2000/svg">
<rect x="56.5" y="32.3846" width="5.90909" height="17.4615" rx="2.5" transform="rotate(-180 56.5 32.3846)" fill="white" stroke="black"/>
<rect x="6.40906" y="32.3846" width="5.90909" height="17.4615" rx="2.5" transform="rotate(-180 6.40906 32.3846)" fill="white" stroke="black"/>
<rect x="11.3636" y="44" width="5.5" height="34.2727" rx="2" transform="rotate(-90 11.3636 44)" fill="white" stroke="black" stroke-width="2"/>
<path d="M45.6364 31.8846L11.3636 31.8846L11.3636 18.1364C11.3636 8.67222 19.0358 1.00002 28.5 1.00003C37.9641 1.00003 45.6364 8.67224 45.6364 18.1364L45.6364 31.8846Z" fill="white" stroke="black" stroke-width="2"/>
<path d="M18 32L16 32L16 6C16 5.44771 16.4477 5 17 5L18 5L18 32Z" fill="black"/>
<path d="M18 32L16 32L16 6C16 5.44771 16.4477 5 17 5L18 5L18 32Z" fill="black"/>
<path d="M41 32L39 32L39 5L40 5C40.5523 5 41 5.44772 41 6L41 32Z" fill="black"/>
<path d="M41 32L39 32L39 5L40 5C40.5523 5 41 5.44772 41 6L41 32Z" fill="black"/>
</svg>
