<?xml version="1.0" standalone="no"?>
<!DOCTYPE svg PUBLIC "-//W3C//DTD SVG 20010904//EN"
 "http://www.w3.org/TR/2001/REC-SVG-20010904/DTD/svg10.dtd">
<svg version="1.0" xmlns="http://www.w3.org/2000/svg"
 width="512.000000pt" height="512.000000pt" viewBox="0 0 512.000000 512.000000"
 preserveAspectRatio="xMidYMid meet">

<g transform="translate(0.000000,512.000000) scale(0.100000,-0.100000)"
fill="#000000" stroke="none">
<path d="M927 5105 c-164 -28 -353 -109 -482 -206 -396 -301 -544 -810 -370
-1275 69 -183 177 -338 460 -655 220 -247 250 -283 334 -402 36 -50 80 -99
104 -115 37 -24 49 -27 132 -27 83 0 95 3 132 27 24 16 68 65 104 115 84 119
114 155 334 402 220 247 313 367 384 495 191 345 200 719 25 1058 -218 421
-693 661 -1157 583z m385 -418 c119 -38 203 -90 293 -181 65 -66 90 -99 127
-176 133 -270 95 -534 -116 -814 -58 -76 -255 -303 -477 -549 l-35 -39 -60 68
c-32 38 -132 151 -222 251 -90 100 -193 223 -231 273 -208 277 -245 542 -113
810 76 155 223 288 382 346 143 51 314 56 452 11z"/>
<path d="M1013 4312 c-263 -94 -284 -447 -35 -569 76 -37 182 -39 257 -5 65
30 128 92 157 156 31 71 31 181 0 252 -63 141 -237 217 -379 166z"/>
<path d="M3837 3555 c-551 -93 -951 -587 -923 -1140 10 -204 81 -406 211 -595
73 -108 106 -146 350 -415 222 -244 252 -279 334 -394 62 -87 89 -112 140
-129 51 -18 90 -14 148 12 76 36 108 88 108 177 0 67 -1 68 -68 166 -88 128
-166 221 -397 471 -104 114 -217 243 -250 287 -196 264 -230 525 -102 785 82
169 231 295 420 358 67 22 94 26 207 26 113 0 140 -4 207 -26 120 -40 204 -92
293 -182 201 -202 257 -491 149 -763 -38 -94 -90 -177 -193 -307 -118 -148
-131 -191 -90 -286 38 -88 134 -136 224 -112 67 18 88 35 177 146 225 279 317
496 334 783 17 300 -102 609 -320 827 -250 249 -617 368 -959 311z"/>
<path d="M3923 2762 c-263 -94 -284 -447 -35 -569 76 -37 182 -39 257 -5 65
30 128 92 157 156 31 71 31 181 0 252 -63 141 -237 217 -379 166z"/>
<path d="M1020 1973 c-44 -23 -60 -39 -82 -82 -36 -68 -36 -114 0 -182 22 -43
38 -59 82 -82 47 -25 63 -28 109 -23 69 6 126 45 158 105 65 124 -17 273 -158
287 -46 5 -62 2 -109 -23z"/>
<path d="M1600 1653 c-44 -23 -60 -39 -82 -82 -36 -68 -36 -114 0 -182 22 -43
38 -59 82 -82 47 -25 63 -28 109 -23 69 6 126 45 158 105 65 124 -17 273 -158
287 -46 5 -62 2 -109 -23z"/>
<path d="M2190 1333 c-44 -23 -60 -39 -82 -82 -36 -68 -36 -114 0 -182 22 -43
38 -59 82 -82 47 -25 63 -28 109 -23 69 6 126 45 158 105 65 124 -17 273 -158
287 -46 5 -62 2 -109 -23z"/>
<path d="M2760 1013 c-44 -23 -60 -39 -82 -82 -16 -31 -28 -69 -28 -91 0 -22
12 -60 28 -91 22 -43 38 -59 82 -82 47 -25 63 -28 109 -23 69 6 126 45 158
105 65 124 -17 273 -158 287 -46 5 -62 2 -109 -23z"/>
<path d="M3350 693 c-44 -23 -60 -39 -82 -82 -16 -31 -28 -69 -28 -91 0 -22
12 -60 28 -91 22 -43 38 -59 82 -82 47 -25 63 -28 109 -23 69 6 126 45 158
105 65 124 -17 273 -158 287 -46 5 -62 2 -109 -23z"/>
<path d="M3940 384 c-162 -70 -160 -301 2 -369 144 -59 299 74 266 228 -24
117 -160 188 -268 141z"/>
</g>
</svg>
