<?xml version="1.0" standalone="no"?>
<!DOCTYPE svg PUBLIC "-//W3C//DTD SVG 20010904//EN"
 "http://www.w3.org/TR/2001/REC-SVG-20010904/DTD/svg10.dtd">
<svg version="1.0" xmlns="http://www.w3.org/2000/svg"
 width="512.000000pt" height="512.000000pt" viewBox="0 0 512.000000 512.000000"
 preserveAspectRatio="xMidYMid meet">

<g transform="translate(0.000000,512.000000) scale(0.100000,-0.100000)"
fill="#000000" stroke="none">
<path d="M548 4466 c-97 -35 -150 -81 -199 -176 l-24 -45 -3 -1585 c-2 -1115
1 -1601 9 -1638 37 -181 197 -337 378 -372 35 -6 596 -10 1620 -10 1299 0
1577 3 1631 14 207 44 367 168 455 351 67 141 66 124 63 1085 l-3 865 -26 56
c-32 68 -82 120 -152 157 l-52 27 -1525 0 -1525 0 -51 -27 c-76 -40 -107 -70
-145 -140 l-34 -63 -5 -952 c-5 -942 -5 -952 -26 -979 -35 -47 -70 -67 -126
-72 -61 -4 -106 19 -145 77 l-23 34 0 1543 0 1544 623 0 c555 0 629 -2 673
-17 42 -14 80 -46 254 -218 113 -111 225 -215 250 -232 122 -83 286 -144 435
-162 53 -6 271 -11 527 -11 l437 0 3 -77 3 -78 159 -3 158 -3 -4 118 c-3 101
-7 126 -29 174 -32 68 -82 120 -152 157 l-52 27 -535 6 c-583 6 -572 5 -695
66 -75 38 -113 70 -325 278 -171 167 -205 195 -271 228 -135 66 -139 67 -864
66 -509 0 -658 -3 -687 -13z"/>
</g>
</svg>
