<svg width="39" height="39" viewBox="0 0 39 39" fill="none" xmlns="http://www.w3.org/2000/svg">
<g clip-path="url(#clip0_93_1322)">
<path d="M2.58987 0.0837847C1.37112 0.319917 0.312329 1.40156 0.0761963 2.66601C-0.0304443 3.22207 -0.0304443 20.1703 0.0761963 20.7264C0.251392 21.648 0.868384 22.524 1.66057 22.9658C2.39944 23.3771 2.46038 23.3848 7.59436 23.3848H12.3323L12.3551 26.127L12.378 28.8691L14.0004 30.4916L15.6153 32.1064V35.3437C15.6229 38.7562 15.6153 38.7258 15.9733 38.9086C16.0951 38.9771 18.5707 39 25.6699 39C35.816 39 35.5418 39.0076 35.6789 38.6572C35.7018 38.5887 35.7246 35.1305 35.7246 30.9715V23.4152L36.2502 23.3391C37.5985 23.1258 38.6649 22.0822 38.9239 20.7264C39.0305 20.1703 39.0305 3.22207 38.9239 2.65839C38.6801 1.37109 37.6289 0.319917 36.334 0.0761675C35.8237 -0.0228559 3.08499 -0.0152388 2.58987 0.0837847ZM36.4407 1.44726C36.7073 1.5539 36.9586 1.72148 37.1567 1.93476C37.7432 2.57461 37.7127 1.95 37.6899 11.8523L37.667 20.6807L37.5071 20.9853C37.2785 21.4119 36.9662 21.7014 36.5244 21.907C36.1512 22.0822 36.0979 22.0898 33.8203 22.0898H31.5047L27.6885 18.2889C25.3424 15.9504 23.7199 14.3889 23.461 14.2289C22.4174 13.5738 21.2367 13.49 20.1399 14.008C18.8449 14.6174 18.0223 16.1637 18.2584 17.5576C18.4336 18.5631 18.6621 18.9059 20.3151 20.574L21.8156 22.0898H12.3323H2.85647L2.47561 21.907C2.03381 21.7014 1.72151 21.4119 1.49299 20.9853L1.33303 20.6807L1.31018 11.8295C1.29495 3.13066 1.29495 2.97832 1.44729 2.57461C1.6301 2.07187 2.05667 1.64531 2.5594 1.44726C2.92502 1.30253 3.33635 1.30253 19.4772 1.29492C35.9379 1.29492 36.0293 1.29492 36.4407 1.44726ZM22.0289 15.0135C22.2498 15.0668 22.5164 15.1582 22.6231 15.2191C22.7297 15.2877 24.634 17.1463 26.8506 19.3629L30.8953 23.3848H32.6625H34.4297V28.9072V34.4297H25.6699H16.9102V33.0967C16.9102 32.076 16.8873 31.7027 16.8035 31.5504C16.7426 31.4361 16.0037 30.6592 15.1658 29.8213L13.6348 28.2978V25.8451V23.3848H18.2051H22.7754V25.4871V27.5971L24.1465 28.9758L25.51 30.3545L25.9746 29.8975L26.4317 29.4404L25.251 28.2598L24.0703 27.0791V24.9311C24.0703 23.6133 24.0399 22.6992 23.9865 22.5697C23.9485 22.4555 23.0039 21.45 21.9071 20.3379C20.6198 19.043 19.8352 18.1975 19.7285 17.9842C19.3858 17.2986 19.4467 16.5445 19.9037 15.8742C20.2541 15.341 20.7569 15.0668 21.5719 14.9373C21.6024 14.9297 21.808 14.9678 22.0289 15.0135ZM34.4297 36.7148V37.7051H25.6699H16.9102V36.7148V35.7246H25.6699H34.4297V36.7148Z" fill="black"/>
<path d="M9.50625 2.67363C9.36914 2.72695 8.75977 3.47344 7.5334 5.11113L5.76621 7.47246L4.95117 6.66504C4.25801 5.98711 4.09805 5.86523 3.89238 5.86523C3.73242 5.86523 3.58008 5.93379 3.46582 6.05566L3.27539 6.23848V10.3213C3.27539 14.7316 3.29063 14.9754 3.69434 15.9961C4.30371 17.55 5.57578 18.8754 7.12207 19.5838C8.70645 20.2998 10.7936 20.2998 12.3779 19.5838C13.9242 18.8754 15.1963 17.55 15.8057 15.9961C16.2094 14.9754 16.2246 14.7316 16.2246 10.3213V6.23848L16.0342 6.05566C15.9199 5.93379 15.7676 5.86523 15.6076 5.86523C15.402 5.86523 15.242 5.98711 14.5488 6.66504L13.7338 7.47246L11.9666 5.11113C10.5803 3.26777 10.1461 2.73457 9.96328 2.67363C9.83379 2.62793 9.72715 2.58984 9.71953 2.59746C9.71191 2.59746 9.62051 2.63555 9.50625 2.67363ZM11.3877 6.52793C13.3148 9.11016 13.2768 9.06445 13.65 9.06445C13.8938 9.06445 14.0004 8.9959 14.4346 8.5998L14.9297 8.13516V9.28535V10.4355H9.75H4.57031V9.28535V8.13516L5.06543 8.5998C5.49961 8.9959 5.60625 9.06445 5.85 9.06445C6.22324 9.06445 6.18516 9.11016 8.1123 6.52793C8.98066 5.37012 9.71953 4.41797 9.75 4.41797C9.78047 4.41797 10.5193 5.37012 11.3877 6.52793ZM14.9145 13.193C14.884 14.5412 14.8611 14.7164 14.6783 15.2877C14.2594 16.5369 13.2615 17.6947 12.0885 18.2736C11.2887 18.6621 10.6564 18.8145 9.75 18.8145C8.84355 18.8145 8.21133 18.6621 7.41152 18.2736C6.23848 17.6947 5.24063 16.5369 4.82168 15.2877C4.63887 14.7164 4.61602 14.5412 4.58555 13.193L4.55508 11.7305H9.75H14.9449L14.9145 13.193Z" fill="black"/>
<path d="M9.11777 7.81523C9.0873 7.8457 9.06445 8.14277 9.06445 8.47031V9.06445H9.75H10.4432L10.4203 8.43223L10.3975 7.80762L9.78809 7.78477C9.44531 7.77715 9.14824 7.78477 9.11777 7.81523Z" fill="black"/>
<path d="M5.86523 13.8633C5.86523 15.3563 7.19824 17.0092 8.73691 17.4053C9.67383 17.649 10.8088 17.5119 11.6314 17.0473C12.7588 16.415 13.6348 15.0135 13.6348 13.8633V13.6348H12.9949H12.3627L12.3094 13.9928C12.2027 14.8078 11.6238 15.6 10.8469 15.9961C10.527 16.1561 10.3746 16.1865 9.75 16.1865C9.12539 16.1865 8.97305 16.1561 8.65313 15.9961C7.87617 15.6 7.29727 14.8078 7.19063 13.9928L7.1373 13.6348H6.50508H5.86523V13.8633Z" fill="black"/>
<path d="M28.1988 6.55078C27.5971 6.68027 27.0867 7.0916 26.8201 7.69336C26.6754 8.00566 26.6602 8.18848 26.6602 9.75C26.6602 11.3877 26.6678 11.4791 26.843 11.8447C26.9344 12.058 27.1477 12.3398 27.3076 12.4846C27.8941 12.9949 27.8256 12.9873 31.1543 12.9873C33.8813 12.9873 34.1936 12.9721 34.5211 12.8502C34.9629 12.6826 35.5037 12.1037 35.6332 11.6695C35.7551 11.2658 35.7551 8.23418 35.6332 7.83047C35.5113 7.42676 34.9705 6.83262 34.5668 6.65742C34.2697 6.52793 33.9727 6.51269 31.3828 6.49746C29.8137 6.48984 28.3816 6.52031 28.1988 6.55078ZM29.25 8.41699V9.06445H28.6025H27.9551V8.67598C27.9551 8.46269 27.9932 8.22656 28.0389 8.14277C28.1455 7.93711 28.5264 7.77715 28.9301 7.76953H29.25V8.41699ZM31.8398 8.41699V9.06445H31.1924H30.5449V8.41699V7.76953H31.1924H31.8398V8.41699ZM34.2621 8.03613C34.3916 8.18848 34.4297 8.32559 34.4297 8.65312V9.06445H33.7822H33.1348V8.47031C33.1348 8.14277 33.1576 7.8457 33.1957 7.81523C33.2262 7.77715 33.4395 7.76953 33.668 7.79238C33.9955 7.83047 34.125 7.88379 34.2621 8.03613ZM29.25 11.083V11.7305H28.9453C28.5568 11.7305 28.1455 11.5629 28.0389 11.3648C27.9932 11.2734 27.9551 11.0373 27.9551 10.824V10.4355H28.6025H29.25V11.083ZM31.8398 11.083V11.7305H31.1924H30.5449V11.083V10.4355H31.1924H31.8398V11.083ZM34.4297 10.8469C34.4297 11.4639 34.2316 11.6695 33.6223 11.6848L33.1729 11.6924L33.15 11.0602L33.1271 10.4355H33.7822H34.4297V10.8469Z" fill="black"/>
<path d="M27.9551 14.9678V15.6152H28.6025H29.25V14.9678V14.3203H28.6025H27.9551V14.9678Z" fill="black"/>
<path d="M30.5449 14.9678V15.6152H31.1924H31.8398V14.9678V14.3203H31.1924H30.5449V14.9678Z" fill="black"/>
<path d="M33.1348 14.9678V15.6152H33.7822H34.4297V14.9678V14.3203H33.7822H33.1348V14.9678Z" fill="black"/>
</g>
<defs>
<clipPath id="clip0_93_1322">
<rect width="39" height="39" fill="white"/>
</clipPath>
</defs>
</svg>
