<?xml version="1.0" standalone="no"?>
<!DOCTYPE svg PUBLIC "-//W3C//DTD SVG 20010904//EN"
 "http://www.w3.org/TR/2001/REC-SVG-20010904/DTD/svg10.dtd">
<svg version="1.0" xmlns="http://www.w3.org/2000/svg"
 width="512.000000pt" height="512.000000pt" viewBox="0 0 512.000000 512.000000"
 preserveAspectRatio="xMidYMid meet">

<g transform="translate(0.000000,512.000000) scale(0.100000,-0.100000)"
fill="#000000" stroke="none">
<path d="M1143 5105 c-136 -37 -239 -123 -301 -252 l-37 -78 -3 -1940 c-2
-1460 0 -1954 9 -1995 26 -122 117 -244 225 -302 102 -55 134 -58 676 -58 343
0 505 3 521 11 24 11 47 47 47 73 0 8 -9 24 -19 37 l-19 24 -529 5 -528 5 -55
26 c-66 31 -121 85 -152 148 l-23 46 -3 1932 c-2 1932 -2 1932 19 1987 25 67
86 133 154 166 47 23 63 25 231 28 l181 4 5 -86 c7 -98 29 -153 86 -210 63
-64 103 -79 220 -84 97 -4 105 -3 128 19 32 30 31 72 -1 104 -21 22 -33 25
-103 25 -66 0 -85 4 -113 23 -46 31 -69 80 -69 150 l0 57 600 0 600 0 0 -55
c0 -65 -17 -110 -54 -145 l-28 -25 -301 -6 c-166 -3 -303 -6 -304 -7 -15 -12
-33 -69 -29 -88 14 -53 28 -55 358 -52 292 3 304 4 345 26 104 55 154 139 161
270 l5 84 181 -4 c175 -3 183 -4 238 -31 61 -30 105 -74 140 -140 l23 -42 5
-1553 5 -1554 24 -19 c32 -26 73 -24 99 4 l22 23 0 1541 c0 1485 -1 1543 -19
1602 -48 156 -180 276 -339 310 -37 8 -376 11 -1140 10 -902 0 -1096 -3 -1139
-14z"/>
<path d="M3074 4606 c-98 -31 -190 -125 -220 -225 -35 -117 -3 -228 109 -379
121 -163 180 -206 254 -187 53 13 211 208 271 333 42 89 46 164 11 257 -30 81
-112 163 -192 193 -66 25 -167 28 -233 8z m194 -155 c98 -50 128 -154 76 -258
-30 -58 -149 -213 -164 -213 -14 0 -126 148 -160 211 -38 72 -40 126 -5 185
50 86 165 120 253 75z"/>
<path d="M3132 4350 c-33 -31 -31 -102 4 -129 15 -12 33 -21 40 -21 31 0 64
25 75 57 27 83 -58 149 -119 93z"/>
<path d="M2200 4379 c-92 -42 -131 -104 -138 -221 l-4 -76 -37 -7 c-69 -13
-189 -66 -258 -114 -174 -122 -283 -307 -308 -523 -7 -54 -8 -56 -41 -62 -82
-16 -121 -89 -110 -209 8 -83 41 -153 93 -196 77 -64 50 -62 914 -59 l784 3
46 27 c85 50 125 114 135 217 14 127 -16 190 -99 212 l-43 12 -13 85 c-43 296
-263 538 -553 604 l-48 11 0 60 c0 88 -18 135 -70 187 -70 71 -163 89 -250 49z
m145 -154 c21 -20 25 -34 25 -80 l0 -55 -81 0 -81 0 4 61 c4 49 9 66 27 80 33
27 77 24 106 -6z m194 -300 c226 -54 407 -256 436 -487 l7 -56 -145 -4 c-167
-4 -187 -12 -187 -78 0 -62 7 -64 254 -70 l221 -5 3 -25 c7 -44 -17 -100 -51
-120 -31 -19 -56 -20 -787 -20 -731 0 -756 1 -787 20 -33 20 -57 79 -51 123
l3 22 491 5 c396 4 494 8 507 19 25 20 22 83 -4 107 -20 18 -44 19 -436 22
l-415 3 6 47 c35 246 207 441 438 498 79 18 415 18 497 -1z"/>
<path d="M1567 2496 c-50 -18 -76 -42 -98 -91 -16 -35 -19 -69 -19 -283 0
-264 3 -284 56 -334 45 -42 75 -48 239 -48 134 0 156 2 176 19 16 13 23 29 23
55 0 64 -15 70 -187 76 l-152 5 -3 227 -2 228 22 5 c13 3 322 4 688 3 l665 -3
5 -56 c6 -69 29 -99 75 -99 52 0 75 34 75 108 0 35 -6 77 -14 95 -17 42 -66
83 -114 97 -24 6 -279 10 -717 10 -547 -1 -687 -4 -718 -14z"/>
<path d="M2950 2035 c-60 -19 -123 -74 -152 -133 -22 -45 -23 -57 -26 -328
l-4 -281 -56 -17 c-113 -35 -202 -112 -251 -215 l-26 -56 -3 -304 c-4 -364 -2
-374 108 -551 78 -126 100 -150 137 -150 30 0 73 42 73 72 0 13 -34 79 -75
147 -41 68 -79 140 -85 160 -5 20 -10 156 -10 307 l0 270 26 52 c28 56 67 92
126 116 l36 16 4 -159 c4 -183 11 -201 78 -201 72 0 69 -23 72 541 3 567 1
547 76 570 32 9 44 8 71 -6 60 -31 61 -38 61 -528 l0 -444 23 -21 c29 -27 67
-28 98 -3 24 19 24 23 29 241 l5 222 28 24 c40 34 88 32 129 -5 l33 -29 5
-222 c5 -205 6 -223 24 -236 23 -16 59 -18 86 -4 31 16 40 67 40 221 0 142 1
149 24 176 32 37 103 40 138 5 22 -21 23 -32 28 -198 5 -170 6 -176 29 -195
32 -26 73 -24 99 4 20 21 22 34 22 125 0 119 14 163 59 186 16 9 35 16 41 16
27 0 78 -33 89 -56 8 -18 11 -184 11 -570 l0 -545 25 -24 c30 -31 64 -32 99
-4 l27 21 -3 577 -3 578 -30 48 c-39 62 -96 102 -166 117 -50 10 -64 9 -117
-8 l-60 -20 -31 38 c-63 75 -167 105 -261 74 l-51 -17 -43 44 c-58 60 -116 81
-206 75 l-70 -5 0 137 c0 173 -13 223 -78 290 -35 36 -61 52 -101 64 -65 19
-91 19 -151 1z"/>
<path d="M2146 1869 c-19 -15 -26 -30 -26 -54 0 -24 7 -39 26 -54 25 -20 39
-21 228 -21 190 0 204 1 224 20 14 14 22 33 22 55 0 22 -8 41 -22 55 -20 19
-34 20 -224 20 -189 0 -203 -1 -228 -21z"/>
</g>
</svg>
