<svg width="39" height="39" viewBox="0 0 39 39" fill="none" xmlns="http://www.w3.org/2000/svg">
<g clip-path="url(#clip0_93_1338)">
<path d="M18.4564 0.0761709C17.8851 0.182812 16.9025 0.556054 16.354 0.883593C16.0036 1.09687 14.8839 2.16328 11.898 5.13398L7.91418 9.10254L8.70637 9.15586C9.94797 9.23203 10.9001 9.52148 11.7075 10.0623C11.9056 10.1918 13.5509 11.7686 15.3486 13.5586C17.1538 15.3486 18.7001 16.8568 18.7915 16.9025C18.9972 17.0092 19.3476 17.0092 19.6294 16.9025C19.7437 16.8645 21.2976 15.3715 23.08 13.6043C24.8624 11.8295 26.4697 10.2756 26.6601 10.1537C27.696 9.46055 28.4958 9.2168 29.9202 9.14824L31.0095 9.10254L26.9495 5.05781L22.8896 1.01309L22.1659 0.662694C21.7698 0.472265 21.2366 0.258983 20.9853 0.190429C20.4292 0.0457022 18.9972 -0.0228525 18.4564 0.0761709Z" fill="black"/>
<path d="M3.68666 13.3453C2.25463 14.7926 1.11967 15.9961 0.952089 16.2627C-0.327599 18.2279 -0.289513 20.8787 1.05111 22.8211C1.21869 23.0725 2.45267 24.3598 3.7933 25.7004L6.2308 28.1303L7.739 28.0922C9.3767 28.0541 9.81088 27.9627 10.5878 27.5209C10.7859 27.4066 12.3093 25.9518 14.2136 24.0627C17.2376 21.0539 17.5347 20.7797 18.0222 20.5512C18.4945 20.3227 18.6163 20.2998 19.2333 20.2998C20.4597 20.2998 20.3912 20.2465 24.2074 24.0398C26.9876 26.7973 27.5818 27.3533 28.0236 27.5971C28.8005 28.0236 29.3261 28.1074 31.1923 28.1074H32.7995L35.2066 25.6852C37.6365 23.2477 38.0859 22.7145 38.4744 21.808C38.9314 20.7416 39.0533 19.2105 38.7714 18.0832C38.6876 17.7557 38.4591 17.1539 38.2611 16.7578C37.9107 16.0418 37.8878 16.0189 35.3513 13.4596L32.7995 10.8926H31.04C29.1357 10.9002 28.8462 10.9383 28.1074 11.2963C27.6656 11.502 27.2314 11.9057 24.2607 14.8535C21.4271 17.6566 20.8406 18.2051 20.4673 18.3803C19.6218 18.784 18.8296 18.784 17.9917 18.3879C17.6261 18.2127 17.0091 17.6338 14.2441 14.8916C10.0546 10.7402 10.306 10.8926 7.61713 10.8926H6.12416L3.68666 13.3453Z" fill="black"/>
<path d="M19.1572 21.9832C19.1191 21.9908 18.982 22.0213 18.8525 22.0518C18.685 22.0898 17.748 22.9658 15.3105 25.3957C13.4443 27.2467 11.8295 28.793 11.6086 28.9301C10.725 29.4861 9.64336 29.7832 8.54648 29.7832H7.88379L11.7305 33.6375C13.848 35.7551 15.7295 37.5984 15.9199 37.7432C16.4303 38.1164 17.291 38.5277 17.9613 38.7105C18.8678 38.9543 20.2236 38.9314 21.1377 38.6648C22.0365 38.3906 22.7297 38.0174 23.4 37.4385C23.7047 37.1719 25.548 35.3666 27.4904 33.4166L31.0172 29.8822L30.0422 29.8289C28.8082 29.7604 28.2598 29.6309 27.3457 29.1967L26.6221 28.8463L23.2324 25.4719C20.7492 23.0039 19.7818 22.0898 19.6143 22.0518C19.4848 22.0213 19.3553 21.9908 19.3096 21.9832C19.2715 21.968 19.2029 21.968 19.1572 21.9832Z" fill="black"/>
</g>
<defs>
<clipPath id="clip0_93_1338">
<rect width="39" height="39" fill="white"/>
</clipPath>
</defs>
</svg>
