<svg width="17" height="16" viewBox="0 0 17 16" fill="none" xmlns="http://www.w3.org/2000/svg">
<g clip-path="url(#clip0_1_128)">
<path d="M12.5473 9.23373C12.8874 8.41425 13.06 7.54381 13.06 6.64652C13.06 5.7492 12.8874 4.87874 12.5473 4.05949C12.3837 3.66564 12.1814 3.28568 11.9457 2.93046C11.7122 2.57848 11.4442 2.24761 11.1489 1.94681C10.8539 1.646 10.5289 1.37295 10.1834 1.13512C9.83465 0.895203 9.46188 0.688945 9.07527 0.522471C8.27085 0.175798 7.41641 0 6.53557 0C5.65478 0 4.80055 0.175798 3.9961 0.522471C3.60949 0.688945 3.23672 0.895221 2.88779 1.13512C2.54229 1.37293 2.21751 1.64598 1.92224 1.94681C1.62697 2.24761 1.35898 2.57848 1.12568 2.93046C0.889961 3.28568 0.687531 3.66565 0.524117 4.05949C0.18387 4.87876 0.0114136 5.7492 0.0114136 6.64652C0.0114136 7.54381 0.18387 8.41425 0.524117 9.23373C0.687531 9.62739 0.889961 10.0073 1.12568 10.3625C1.359 10.7145 1.62697 11.0456 1.92224 11.3462C2.21751 11.647 2.54229 11.9201 2.88779 12.1579C3.23672 12.398 3.60949 12.6041 3.9961 12.7707C4.80055 13.1172 5.65478 13.293 6.53557 13.293C7.41639 13.293 8.27085 13.1172 9.07527 12.7707C9.46188 12.6041 9.83465 12.398 10.1834 12.1579C10.5289 11.9201 10.8539 11.6471 11.1489 11.3462C11.4442 11.0456 11.7122 10.7145 11.9457 10.3625C12.1814 10.0073 12.3837 9.62739 12.5473 9.23373ZM6.53557 10.9872C4.18232 10.9872 2.27468 9.04384 2.27468 6.64654C2.27468 4.24919 4.18234 2.30582 6.53557 2.30582C8.88885 2.30582 10.7965 4.24919 10.7965 6.64654C10.7965 9.04384 8.88885 10.9872 6.53557 10.9872ZM15.6755 13.9143L14.7794 13.0014L12.9049 10.9762L12.9027 10.9752L12.9006 10.9765C12.4701 11.6835 11.9216 12.2949 11.2702 12.7934L11.2691 12.7953L11.2698 12.7976L13.0679 14.745L13.9638 15.6575C14.1806 15.8784 14.47 16 14.7788 16C15.0875 16 15.3768 15.8784 15.5934 15.6575L15.6755 15.574C15.8922 15.3533 16.0114 15.0586 16.0114 14.7441C16.0114 14.4297 15.8922 14.135 15.6755 13.9143Z" fill="black"/>
</g>
<defs>
<clipPath id="clip0_1_128">
<rect width="16" height="16" fill="white" transform="translate(0.0114136)"/>
</clipPath>
</defs>
</svg>
