<svg width="47" height="47" viewBox="0 0 47 47" fill="none" xmlns="http://www.w3.org/2000/svg">
<g clip-path="url(#clip0_165_1331)">
<path d="M2.15723 0.128518C1.95527 0.192775 1.66152 0.312111 1.51465 0.385549C1.07402 0.615041 0.413086 1.38613 0.220312 1.88184C0.0458984 2.33164 0.0458984 2.86406 0.0458984 23.5459V44.751L0.266211 45.2283C0.532422 45.8342 1.28516 46.541 1.88184 46.7797C2.33164 46.9541 2.82734 46.9541 23.5 46.9541C44.1727 46.9541 44.6684 46.9541 45.1182 46.7797C45.7148 46.541 46.4676 45.8342 46.7338 45.2283L46.9541 44.751V23.5459C46.9541 2.82735 46.9541 2.33164 46.7797 1.88184C46.541 1.28516 45.8342 0.532424 45.2283 0.266213L44.751 0.0459003L29.8982 0.0183613L15.0363 1.90549e-06L14.7242 0.312111C14.302 0.734377 14.302 1.10156 14.7242 1.52383L15.0363 1.83594H29.6596C44.1727 1.83594 44.292 1.83594 44.5949 2.01953C45.1457 2.35918 45.1641 2.47852 45.1641 6.24219V9.63867H23.5H1.83594V6.16875C1.83594 1.49629 1.58809 1.83594 5.00293 1.83594C7.39883 1.83594 7.67422 1.79004 7.89453 1.38613C8.01387 1.15664 8.01387 0.679299 7.89453 0.449807C7.67422 0.0367207 7.40801 1.90549e-06 4.89277 0.00918159C3.24961 0.00918159 2.41426 0.0459003 2.15723 0.128518ZM45.1641 27.8145C45.1641 45.8066 45.2008 44.6041 44.5949 44.9805C44.292 45.1641 44.191 45.1641 23.5 45.1641C2.80898 45.1641 2.70801 45.1641 2.40508 44.9805C1.79922 44.6041 1.83594 45.8066 1.83594 27.8145V11.4746H23.5H45.1641V27.8145Z" fill="black"/>
<path d="M5.24162 14.2652C4.76428 14.5314 4.78264 14.2468 4.77346 22.7931C4.77346 31.4496 4.7551 31.1374 5.27834 31.3761C5.59963 31.523 26.3182 31.5322 26.6486 31.3853C26.768 31.3302 26.9332 31.1742 27.0158 31.0273C27.1627 30.7886 27.1719 30.0726 27.1719 22.7656V14.7609L26.8598 14.4488L26.5477 14.1367H16.0094C7.42638 14.1458 5.42521 14.1642 5.24162 14.2652ZM25.336 21.6824C25.336 24.8218 25.2992 27.3554 25.2625 27.3095C25.2166 27.2544 24.317 25.8499 23.2705 24.1884C22.2149 22.5177 21.2969 21.0857 21.2235 21.0031C21.15 20.9113 20.9481 20.8195 20.7736 20.7828C20.1586 20.6634 20.0117 20.8103 18.7633 22.8023C18.1207 23.8121 17.5057 24.7851 17.3955 24.9503L17.1936 25.2533L15.2383 22.1689C14.1551 20.4706 13.1912 19.0203 13.0903 18.9468C12.8332 18.7724 12.3008 18.7908 12.0529 18.9835C11.952 19.0662 10.7311 20.9113 9.3633 23.0869C7.98635 25.2533 6.80217 27.1167 6.73791 27.2177C6.62775 27.3646 6.60939 26.5201 6.60939 21.6824V15.9726H15.9727H25.336V21.6824ZM15.2016 25.5378L17.7811 29.6044L12.6404 29.632C9.8131 29.6412 7.48146 29.632 7.4631 29.6136C7.41721 29.5677 12.5028 21.4896 12.5762 21.4804C12.6037 21.4804 13.7879 23.3072 15.2016 25.5378ZM22.5361 26.4558C23.601 28.1265 24.4822 29.531 24.4914 29.5677C24.5098 29.6136 23.5 29.6503 22.2424 29.6503H19.9658L19.1305 28.3101L18.286 26.9607L19.0295 25.804C19.4334 25.1706 19.9383 24.372 20.1403 24.0324C20.3514 23.6927 20.535 23.4173 20.5625 23.4081C20.5901 23.4081 21.4805 24.7759 22.5361 26.4558Z" fill="black"/>
<path d="M30.5776 14.2652C30.036 14.5682 29.9625 15.2016 30.4215 15.6605L30.7336 15.9727H36.0578C39.2248 15.9727 41.483 15.9359 41.6207 15.8809C41.942 15.7615 42.1715 15.3668 42.1623 14.9813C42.1531 14.7334 42.0797 14.5865 41.8686 14.3938L41.584 14.1367H36.1863C31.8902 14.1459 30.752 14.1643 30.5776 14.2652Z" fill="black"/>
<path d="M30.6969 19.2773C30.4215 19.3875 30.1094 19.8098 30.1094 20.076C30.1094 20.3697 30.348 20.8104 30.5592 20.9297C30.6785 20.9848 32.6246 21.0215 36.1955 21.0215H41.6482L41.8869 20.792C42.3367 20.3422 42.2266 19.6262 41.6758 19.3508C41.382 19.1947 40.923 19.1855 36.1221 19.1947C33.2488 19.1947 30.7979 19.2314 30.6969 19.2773Z" fill="black"/>
<path d="M30.5408 24.4272C30.3389 24.5465 30.1094 24.9871 30.1094 25.2809C30.1094 25.4094 30.2287 25.6481 30.3756 25.8133L30.6418 26.1162L36.0211 26.1438C40.7119 26.1621 41.4371 26.1438 41.6758 26.0245C42.2357 25.7307 42.3367 25.0055 41.8686 24.5832L41.584 24.3262H36.1404C32.6246 24.3354 30.651 24.3629 30.5408 24.4272Z" fill="black"/>
<path d="M30.4215 29.6871C30.0818 30.0268 30.0267 30.3297 30.2379 30.7428C30.3113 30.8805 30.4765 31.0365 30.6142 31.1008C30.7887 31.1834 32.2574 31.2109 36.2138 31.2109H41.584L41.8685 30.9539C42.0797 30.7611 42.1531 30.6143 42.1623 30.3664C42.1715 29.9809 41.942 29.5861 41.6207 29.4668C41.483 29.4117 39.2248 29.375 36.0578 29.375H30.7336L30.4215 29.6871Z" fill="black"/>
<path d="M7.36214 35.3326C6.36155 35.7089 5.59046 36.4158 5.14066 37.3796C4.47054 38.8208 4.77347 40.4916 5.91175 41.6298C7.64671 43.3648 10.5016 43.0435 11.8326 40.9597C12.4936 39.9132 12.5854 38.4261 12.0346 37.3246C11.6399 36.5167 10.9881 35.865 10.217 35.4978C9.67542 35.2499 9.47347 35.2041 8.72073 35.1857C8.03226 35.1582 7.74769 35.1949 7.36214 35.3326ZM9.43675 37.1685C11.0616 38.0039 10.8596 40.363 9.12464 40.8496C7.27952 41.3728 5.83831 39.1054 7.09593 37.6642C7.66507 37.0216 8.71155 36.8013 9.43675 37.1685Z" fill="black"/>
<path d="M17.2854 35.3326C15.5321 35.9844 14.4489 37.7928 14.7701 39.5553C15.2475 42.1164 17.9188 43.4934 20.2229 42.3643C20.8838 42.0338 21.6824 41.2076 22.0129 40.51C22.2332 40.0326 22.2608 39.8766 22.2608 38.9678C22.2608 37.9764 22.2516 37.9305 21.9211 37.2512C21.508 36.4158 20.9756 35.8926 20.1219 35.4979C19.5895 35.25 19.3875 35.2041 18.6348 35.1858C17.9463 35.1582 17.6617 35.1949 17.2854 35.3326ZM19.4701 37.2053C20.0944 37.5358 20.4156 38.059 20.4524 38.8209C20.4983 39.5553 20.3055 40.0326 19.7823 40.4641C18.9836 41.1158 17.9739 41.0883 17.2028 40.3723C16.1379 39.39 16.4592 37.6367 17.8086 37.0951C18.2401 36.9207 19.0295 36.9758 19.4701 37.2053Z" fill="black"/>
<path d="M27.3096 35.3234C25.4645 35.9568 24.4639 37.5816 24.7117 39.5185C24.8586 40.6568 25.6756 41.7951 26.7313 42.3275C29.0537 43.5025 31.7526 42.1347 32.2299 39.546C32.5512 37.7744 31.4496 35.9476 29.678 35.3326C29.017 35.1123 27.943 35.1031 27.3096 35.3234ZM29.5494 37.297C30.2563 37.7652 30.5684 38.5455 30.3848 39.3808C30.192 40.2345 29.3291 40.9414 28.4571 40.9414C26.8323 40.9414 25.9326 38.9953 26.9424 37.6734C27.4932 36.9574 28.7508 36.7738 29.5494 37.297Z" fill="black"/>
<path d="M37.3154 35.2775C36.6637 35.4978 36.1496 35.8099 35.6906 36.2689C33.8639 38.0957 34.433 41.3086 36.7738 42.3826C39.0045 43.4015 41.4922 42.2174 42.0981 39.8398C42.5295 38.1416 41.6391 36.2781 40.0326 35.507C39.5002 35.25 39.3166 35.2133 38.5547 35.1857C38.0039 35.1674 37.5449 35.2041 37.3154 35.2775ZM39.2524 37.1685C39.4543 37.2603 39.7572 37.499 39.9133 37.6918C40.4457 38.3343 40.5283 39.0687 40.152 39.8306C39.4268 41.281 37.343 41.2718 36.6362 39.8123C36.1588 38.83 36.5719 37.6826 37.5908 37.1502C37.9672 36.9482 38.7842 36.9574 39.2524 37.1685Z" fill="black"/>
<path d="M10.6301 0.266237C10.3822 0.486549 10.3271 0.596706 10.3271 0.917995C10.3271 1.23928 10.3822 1.34944 10.6301 1.56975C10.9605 1.8635 11.2635 1.90022 11.6582 1.69827C11.9795 1.53303 12.1172 1.30354 12.1172 0.917995C12.1172 0.532448 11.9795 0.302956 11.6582 0.137721C11.2635 -0.0642318 10.9605 -0.027513 10.6301 0.266237Z" fill="black"/>
<path d="M5.84744 5.09473C5.39764 5.54453 5.50779 6.26055 6.05857 6.53594C6.35232 6.69199 6.89393 6.70117 13.3564 6.70117C19.8189 6.70117 20.3605 6.69199 20.6543 6.53594C21.2051 6.26055 21.3152 5.54453 20.8654 5.09473L20.6267 4.86523H13.3564H6.08611L5.84744 5.09473Z" fill="black"/>
<path d="M30.0084 5.13141C29.3015 5.84743 30.0726 6.94899 31.009 6.55426C31.6056 6.30641 31.7066 5.37008 31.1834 5.0029C30.8437 4.76423 30.3205 4.82848 30.0084 5.13141Z" fill="black"/>
<path d="M34.9471 5.12227C34.2586 5.83828 35.0389 6.94902 35.966 6.5543C36.3149 6.4166 36.5719 5.91172 36.4801 5.55371C36.3149 4.87441 35.4244 4.62656 34.9471 5.12227Z" fill="black"/>
<path d="M39.9041 5.12231C39.4451 5.60883 39.6287 6.40747 40.2621 6.60942C40.8955 6.82055 41.5472 6.22387 41.4187 5.54458C41.2902 4.88364 40.3814 4.62661 39.9041 5.12231Z" fill="black"/>
</g>
<defs>
<clipPath id="clip0_165_1331">
<rect width="47" height="47" fill="white"/>
</clipPath>
</defs>
</svg>
