<?xml version="1.0" standalone="no"?>
<!DOCTYPE svg PUBLIC "-//W3C//DTD SVG 20010904//EN"
 "http://www.w3.org/TR/2001/REC-SVG-20010904/DTD/svg10.dtd">
<svg version="1.0" xmlns="http://www.w3.org/2000/svg"
 width="512.000000pt" height="512.000000pt" viewBox="0 0 512.000000 512.000000"
 preserveAspectRatio="xMidYMid meet">

<g transform="translate(0.000000,512.000000) scale(0.100000,-0.100000)"
fill="#000000" stroke="none">
<path d="M2449 5006 c-114 -32 -228 -127 -274 -228 -13 -29 -109 -315 -213
-635 -104 -320 -197 -593 -206 -607 -41 -64 -2 -61 -756 -66 l-685 -5 -66 -32
c-191 -94 -291 -316 -230 -512 22 -71 69 -149 115 -189 18 -16 262 -195 542
-399 310 -226 515 -381 524 -398 8 -15 14 -44 14 -64 -1 -20 -88 -300 -193
-624 -105 -323 -195 -615 -201 -650 -48 -302 261 -564 551 -467 80 27 67 18
598 405 543 395 543 395 591 395 48 0 48 0 591 -395 531 -387 518 -378 598
-405 290 -97 599 166 551 468 -6 34 -96 326 -201 650 -106 323 -192 603 -193
623 0 20 6 49 14 64 9 17 214 172 524 398 280 204 524 383 542 399 46 40 93
118 115 189 61 196 -39 418 -230 512 l-66 32 -685 5 c-754 5 -715 2 -756 66
-9 14 -102 287 -206 607 -104 320 -200 606 -213 635 -30 66 -110 151 -176 187
-98 53 -219 68 -320 41z m166 -300 c18 -8 41 -25 50 -39 8 -13 102 -292 208
-618 107 -327 204 -617 218 -644 57 -116 185 -204 324 -225 41 -5 330 -10 697
-10 l626 0 31 -25 c61 -52 65 -141 8 -194 -18 -16 -250 -188 -517 -381 -267
-194 -506 -372 -532 -397 -92 -90 -140 -237 -118 -362 6 -36 96 -326 200 -646
103 -319 191 -590 195 -603 9 -32 -10 -84 -44 -116 -36 -35 -96 -44 -138 -22
-17 8 -253 176 -524 373 -272 197 -506 366 -520 375 -92 58 -242 74 -352 37
-76 -26 -77 -26 -640 -436 -252 -183 -472 -340 -489 -349 -43 -22 -102 -13
-139 22 -34 32 -53 84 -44 116 4 13 92 284 195 603 104 319 194 609 200 644
22 125 -26 274 -118 364 -26 25 -265 203 -532 397 -267 193 -499 365 -517 381
-57 53 -53 142 8 194 l31 25 626 0 c367 0 656 5 697 10 139 21 267 109 324
225 14 27 111 317 218 644 106 326 200 605 208 618 18 27 67 52 103 53 12 0
38 -6 57 -14z"/>
</g>
</svg>
