<svg width="39" height="39" viewBox="0 0 39 39" fill="none" xmlns="http://www.w3.org/2000/svg">
<path d="M7.09794 2.5155C6.64944 2.7105 6.08394 3.1785 5.83044 3.5295L5.36244 4.1925L5.26494 17.16C5.20644 24.297 5.20644 31.1805 5.26494 32.4675C5.34294 34.5345 5.42094 34.8855 5.83044 35.4705C6.80544 36.816 7.00044 36.855 15.5024 36.855C22.4639 36.855 23.1659 36.816 23.8874 36.4845C25.5839 35.7045 25.9154 34.827 25.9349 30.888C25.9349 28.5285 25.8764 27.885 25.6424 27.69C25.1744 27.3 24.9599 27.651 24.9599 28.782V29.835H15.5024H6.04494V17.6865C6.04494 10.257 6.12294 5.2845 6.23994 4.8555C6.35694 4.485 6.66894 3.9585 6.94194 3.6855L7.44894 3.2175L15.4244 3.159L23.3999 3.1005L24.1214 3.783L24.8624 4.446L24.9209 6.7665C24.9989 9.165 25.1159 9.594 25.6424 9.165C25.8764 8.97 25.9349 8.502 25.9349 7.0395C25.9154 4.2705 25.4474 3.2175 23.8874 2.5155C23.1659 2.184 22.4639 2.145 15.5024 2.145C8.50194 2.145 7.83894 2.184 7.09794 2.5155ZM24.9209 32.682L24.8624 34.554L24.1409 35.217L23.3999 35.88H15.6584C9.88644 35.88 7.78044 35.8215 7.42944 35.6265C6.47394 35.139 6.16194 34.4565 6.08394 32.565L6.00594 30.81H15.5024H24.9989L24.9209 32.682Z" fill="black"/>
<path d="M14.8589 31.9215C14.5469 32.0385 14.0399 33.0135 14.0399 33.5205C14.0399 33.735 14.2544 34.1445 14.5079 34.437C15.4634 35.568 17.3549 34.827 17.3549 33.3255C17.3549 32.214 16.0094 31.4535 14.8589 31.9215ZM16.3799 33.4425C16.3799 33.735 16.2434 33.9495 15.9899 34.0275C15.1904 34.281 14.6249 33.189 15.3464 32.7795C15.8339 32.526 16.3799 32.877 16.3799 33.4425Z" fill="black"/>
<path d="M13.9424 5.265C13.6499 5.733 14.2739 6.045 15.4829 6.045C16.8089 6.045 17.2769 5.85 17.1014 5.382C17.0039 5.1285 16.6724 5.07 15.5219 5.07C14.7224 5.07 14.0009 5.1675 13.9424 5.265Z" fill="black"/>
<path d="M11.31 10.998L10.8615 11.4855L10.9005 18.4665C10.92 25.311 10.9395 25.4475 11.349 25.8765L11.7585 26.325H22.5225H33.2865L33.696 25.8765C34.1055 25.4475 34.125 25.311 34.1445 18.4665L34.1835 11.4855L33.735 10.998L33.2865 10.53H22.5225H11.7585L11.31 10.998ZM33.15 11.7C33.2475 11.856 33.345 12.1875 33.345 12.4215V12.87H22.5225H11.7V12.4215C11.7 11.9145 11.895 11.6025 12.285 11.4465C12.441 11.388 17.16 11.349 22.776 11.3685C31.59 11.4075 32.994 11.4465 33.15 11.7ZM33.345 14.9175V15.99H22.5225H11.7V14.9175V13.845H22.5225H33.345V14.9175ZM33.345 20.8455C33.345 22.9905 33.2865 24.8625 33.228 25.038C33.111 25.311 31.9995 25.35 22.5225 25.35C13.0455 25.35 11.934 25.311 11.817 25.038C11.7585 24.8625 11.7 22.9905 11.7 20.8455V16.965H22.5225H33.345V20.8455Z" fill="black"/>
<path d="M27.1439 19.11C26.4614 19.7925 26.2859 20.514 26.5784 21.4305C26.8319 22.2105 27.8849 23.01 28.6064 23.01C29.4254 23.01 30.3614 22.425 30.6929 21.7425C31.0829 20.943 31.0829 20.4165 30.7124 19.695C30.2834 18.876 29.6789 18.525 28.6454 18.525C27.8849 18.525 27.6119 18.6225 27.1439 19.11ZM29.5229 19.7145C29.8544 19.9875 30.0299 20.2995 30.0299 20.6895C30.0299 21.957 28.4699 22.503 27.7094 21.528C27.1829 20.8455 27.2024 20.3775 27.7874 19.7925C28.3724 19.2075 28.8404 19.188 29.5229 19.7145Z" fill="black"/>
<path d="M13.2794 19.0905C13.1234 19.188 13.0649 19.4025 13.1234 19.578C13.2404 19.851 13.6889 19.89 16.4774 19.89C19.2659 19.89 19.7144 19.851 19.8314 19.578C19.8899 19.4025 19.8314 19.188 19.6754 19.0905C19.3244 18.876 13.6304 18.876 13.2794 19.0905Z" fill="black"/>
<path d="M13.1235 21.7425C12.909 22.347 13.377 22.4445 16.5945 22.386C19.6365 22.3275 19.7925 22.308 19.7925 21.9375C19.7925 21.567 19.6365 21.5475 16.5165 21.489C13.6695 21.45 13.2405 21.489 13.1235 21.7425Z" fill="black"/>
</svg>
